<svg width="32" height="32" fill="none" xmlns="http://www.w3.org/2000/svg">
 <g clip-path="url(#a)">
   <rect width="32" height="32" rx="16" fill="#019BC6"/>
   <path d="M24 13.6c-.86-.5-2-.56-2.96-.28-.12-1.04-.8-1.94-1.6-2.58l-.32-.26-.28.32c-.54.62-.7 1.66-.62 2.46.06.58.24 1.18.6 1.66-.28.16-.58.38-.86.48-.56.2-1.18.4-1.78.4h-.36v-3.4h-2.6V8h-3v2.4h-5v2.6h-2.6v2.8H2.36l-.04.3c-.1 1.28.06 2.52.6 3.7l.22.44.02.04c1.58 2.68 4.34 3.8 7.36 3.8 5.84 0 10.66-2.62 12.86-8.12 1.48.08 3-.36 3.72-1.78l.18-.36-.32-.2zM9 10.8h2v2.2H9v-2.2zm2.62 8.84c0 .34-.28.62-.62.62-.34 0-.62-.28-.62-.62 0-.34.28-.62.62-.62.34.02.62.28.62.62zM9 13.4h2v2.2H9v-2.2zm-2.6 0h2.2v2.2H6.4v-2.2zm5.54 10.04c-3.16-.02-4.86-1.08-6.26-2.48.42.02.82.04 1.18.04.32 0 .64 0 .94-.02.78-.04 1.46-.14 2.02-.3.46 1.06 1.3 2.04 2.8 2.76h-.68zM14.2 15.6h-2.2v-2.2h2.2v2.2zm0-2.6h-2.2v-2.2h2.2V13zm2.6 2.6h-2.2v-2.2h2.2v2.2zm0-2.6h-2.2v-2.2h2.2V13zm0-2.6h-2.2V8.2h2.2v2.2zm2.6 5.2h-2.2v-2.2h2.2v2.2zm-5.24 3.24c-.04-.02-.1-.04-.16-.04-.24 0-.44.2-.44.44 0 .24.2.44.44.44s.44-.2.44-.44c0-.06-.02-.12-.04-.16-.04.06-.08.1-.16.1-.1 0-.18-.08-.18-.18.02-.08.06-.14.1-.16z" fill="white"/>
 </g>
 <defs>
   <clipPath id="a">
     <rect width="32" height="32" rx="16" fill="#fff"/>
   </clipPath>
 </defs>
</svg>