<svg width="32" height="32" fill="none" xmlns="http://www.w3.org/2000/svg">
  <g clip-path="url(#a)">
    <rect width="32" height="32" rx="16" fill="#336791"/>
    <path d="M22 17.2a2.4 2.4 0 00-2.6-2.1c-.8.1-1.6.3-2.4.4-.8 0-1.2-.2-1.8-.8-1.2-1.4-1.7-3.1-2.2-4.8-.3-1.1-.5-2.3-.1-3.4.4-1 1.3-1.6 2.3-1.8 1.1-.2 2.2-.1 3.3.2.7.2 1.4.5 2 .9.4.2.6.2.9-.1.8-.7 1.7-1.2 2.8-1.5 2-.5 4-.5 6 .1 1.7.5 3.2 1.4 4.4 2.8.9 1 1.5 2.3 1.6 3.7.1 1.4 0 2.8-.3 4.2-.3 1.8-.9 3.6-1.6 5.3-.6 1.4-1.3 2.7-2.1 4-.7 1.1-1.5 2.1-2.5 2.9-1.6 1.3-3.5 1.9-5.6 1.9-1.1 0-2.2-.2-3.2-.6-.8-.3-1.4-.9-1.9-1.6-.3-.5-.5-1-.6-1.6-.1-.9-.2-1.8-.2-2.8v-1.5c-.9.3-1.8.5-2.7.6-1.1.1-2.2 0-3.2-.3-1.2-.4-2.1-1.2-2.7-2.3-.7-1.3-1-2.8-1.1-4.3 0-.8.1-1.7.3-2.5.4-1.8 1.2-3.4 2.4-4.8.9-1 2-1.8 3.3-2.3 1.4-.5 2.9-.8 4.4-.7 1.1 0 2.1.2 3.2.5.2 0 .4 0 .5-.2.8-.9 1.8-1.5 3-1.8 2-.5 3.9-.4 5.9.2M10 20.7c1.1.1 2.2-.1 3.2-.6 1.1-.6 1.9-1.5 2.3-2.7.3-1 .5-2.1.5-3.1 0-1.2-.1-2.3-.4-3.5-.4-1.6-1.4-2.8-3-3.2-.9-.3-1.9-.3-2.9-.1-1.4.2-2.6.9-3.6 1.9-.9.9-1.5 2-2 3.2-.4 1.1-.7 2.2-.8 3.3-.1 1.3 0 2.6.4 3.8.5 1.4 1.4 2.3 2.9 2.7.8.2 1.6.3 2.4.3M25 13c-.2-.6-.5-1.2-.8-1.7-1-1.5-2.3-2.8-3.9-3.7-1.3-.7-2.6-1.2-4-1.4-1.1-.2-2.2-.2-3.3-.1-.8.1-1.5.3-2.2.6.9.5 1.7.9 2.5 1.5 1.7 1.1 3.2 2.5 4.5 4.1.5.7.9 1.5 1.3 2.3.5 1 .9 2.1.9 3.2 0 .8 0 1.5-.1 2.3-.1.8-.2 1.7-.3 2.5-.1.9-.3 1.7-.6 2.6-.2.6-.5 1.2-.8 1.7l.2.1c.3-.1.5-.2.8-.4 1.1-.7 2-1.6 2.7-2.7.9-1.4 1.6-2.9 2.2-4.4.8-2.1 1.4-4.3 1.6-6.5.1-.3.1-.7.1-1" fill="white"/>
    <path fill="#fff" fill-opacity=".1" d="M0 23h32v1H0z"/>
    <path fill="#fff" fill-opacity=".1" d="M5 0v32H4V0z"/>
    <path fill="#fff" fill-opacity=".1" d="M0 8h32v1H0z"/>
    <path fill="url(#c)" d="M0 23h32v1H0z"/>
    <path fill="#fff" fill-opacity=".1" d="M28 0v32h-1V0z"/>
  </g>
  <defs>
    <linearGradient id="c" x1="1.5" y1="23.5" x2="30.5" y2="23.5" gradientUnits="userSpaceOnUse">
      <stop stop-color="#fff" stop-opacity="0"/>
      <stop offset=".486" stop-color="#fff"/>
      <stop offset="1" stop-color="#fff" stop-opacity="0"/>
    </linearGradient>
    <clipPath id="a">
      <rect width="32" height="32" rx="16" fill="#fff"/>
    </clipPath>
  </defs>
</svg>